<?xml version="1.0" encoding="UTF-8" standalone="no"?>
<svg
   viewBox="0 0 16 16"
   fill="currentColor"
   class="size-4"
   version="1.1"
   id="svg4"
   sodipodi:docname="bars-3-center-right-16x16.svg"
   inkscape:version="1.2.2 (b0a8486541, 2022-12-01)"
   xmlns:inkscape="http://www.inkscape.org/namespaces/inkscape"
   xmlns:sodipodi="http://sodipodi.sourceforge.net/DTD/sodipodi-0.dtd"
   xmlns="http://www.w3.org/2000/svg"
   xmlns:svg="http://www.w3.org/2000/svg">
  <defs
     id="defs8" />
  <sodipodi:namedview
     id="namedview6"
     pagecolor="#ffffff"
     bordercolor="#000000"
     borderopacity="0.25"
     inkscape:showpageshadow="2"
     inkscape:pageopacity="0.0"
     inkscape:pagecheckerboard="0"
     inkscape:deskcolor="#d1d1d1"
     showgrid="false"
     inkscape:zoom="49.0625"
     inkscape:cx="7.9898089"
     inkscape:cy="8.0203822"
     inkscape:window-width="1920"
     inkscape:window-height="1011"
     inkscape:window-x="0"
     inkscape:window-y="0"
     inkscape:window-maximized="1"
     inkscape:current-layer="svg4" />
  <path
     fill-rule="evenodd"
     d="M 14,12.25 A 0.75,0.75 0 0 1 13.25,13 H 2.75 a 0.75,0.75 0 0 1 0,-1.5 h 10.5 A 0.75,0.75 0 0 1 14,12.25 Z M 14,8 a 0.75,0.75 0 0 1 -0.75,0.75 h -4.5 a 0.75,0.75 0 0 1 0,-1.5 h 4.5 A 0.75,0.75 0 0 1 14,8 Z M 14,3.75 A 0.75,0.75 0 0 1 13.25,4.5 H 2.75 a 0.75,0.75 0 0 1 0,-1.5 h 10.5 A 0.75,0.75 0 0 1 14,3.75 Z"
     clip-rule="evenodd"
     id="path2" />
</svg>
