<?xml version="1.0" encoding="UTF-8" standalone="no"?>
<svg
   viewBox="0 0 16 16"
   fill="currentColor"
   class="size-4"
   version="1.1"
   id="svg44"
   sodipodi:docname="bars-3-center-down-16x16.svg"
   inkscape:version="1.2.2 (b0a8486541, 2022-12-01)"
   xmlns:inkscape="http://www.inkscape.org/namespaces/inkscape"
   xmlns:sodipodi="http://sodipodi.sourceforge.net/DTD/sodipodi-0.dtd"
   xmlns="http://www.w3.org/2000/svg"
   xmlns:svg="http://www.w3.org/2000/svg">
  <defs
     id="defs48" />
  <sodipodi:namedview
     id="namedview46"
     pagecolor="#ffffff"
     bordercolor="#000000"
     borderopacity="0.25"
     inkscape:showpageshadow="2"
     inkscape:pageopacity="0.0"
     inkscape:pagecheckerboard="0"
     inkscape:deskcolor="#d1d1d1"
     showgrid="false"
     inkscape:zoom="49.0625"
     inkscape:cx="7.9898089"
     inkscape:cy="8.0611465"
     inkscape:window-width="1920"
     inkscape:window-height="1011"
     inkscape:window-x="0"
     inkscape:window-y="0"
     inkscape:window-maximized="1"
     inkscape:current-layer="svg44" />
  <path
     fill-rule="evenodd"
     d="M 3.75,14 A 0.75,0.75 0 0 1 3,13.25 V 2.75 a 0.75,0.75 0 0 1 1.5,0 v 10.5 A 0.75,0.75 0 0 1 3.75,14 Z M 8,14 A 0.75,0.75 0 0 1 7.25,13.25 v -4.5 a 0.75,0.75 0 0 1 1.5,0 v 4.5 A 0.75,0.75 0 0 1 8,14 Z m 4.25,0 A 0.75,0.75 0 0 1 11.5,13.25 V 2.75 a 0.75,0.75 0 0 1 1.5,0 v 10.5 A 0.75,0.75 0 0 1 12.25,14 Z"
     clip-rule="evenodd"
     id="path42" />
</svg>
